<?xml version="1.0" encoding="UTF-8"?>
<svg version="1.1" xmlns="http://www.w3.org/2000/svg" width="5000" height="2886">
<path d="M0 0 C1650 0 3300 0 5000 0 C5000 952.38 5000 1904.76 5000 2886 C3350 2886 1700 2886 0 2886 C0 1933.62 0 981.24 0 0 Z " fill="#000C1C" transform="translate(0,0)"/>
<path d="M0 0 C3.46658605 1.15552868 3.68125556 1.66263496 5.42578125 4.69921875 C5.88509033 5.48458008 6.34439941 6.26994141 6.81762695 7.07910156 C7.31093506 7.93987305 7.80424316 8.80064453 8.3125 9.6875 C9.39323737 11.53147185 10.47666871 13.37386688 11.5625 15.21484375 C12.12710938 16.17245605 12.69171875 17.13006836 13.2734375 18.11669922 C16.02943783 22.71912623 18.91596429 27.23514861 21.8125 31.75 C26.73062347 39.43193199 31.60874073 47.13653926 36.4375 54.875 C37.0577002 55.86878662 37.67790039 56.86257324 38.31689453 57.88647461 C39.57676496 59.90608311 40.83636684 61.92585917 42.09570312 63.94580078 C45.29041586 69.06962851 48.48836706 74.19143114 51.6875 79.3125 C52.31390381 80.31522949 52.94030762 81.31795898 53.58569336 82.35107422 C57.37410357 88.41114086 61.17858638 94.4606982 65 100.5 C71.39985753 110.61423388 77.73875893 120.76629843 84.07666016 130.91943359 C87.21589223 135.94746487 90.35807151 140.97365341 93.5 146 C94.75001464 147.99999085 96.00001462 149.99999086 97.25 152 C97.86875 152.99 98.4875 153.98 99.125 155 C119.74999999 187.99999999 119.74999999 187.99999999 121.62573242 191.0012207 C122.87323247 192.99718828 124.12079088 194.99311939 125.3684082 196.98901367 C128.53214182 202.05040916 131.69479561 207.11247394 134.85546875 212.17578125 C140.55021995 221.29664293 146.25047521 230.41354171 152 239.5 C158.39985753 249.61423388 164.73875893 259.76629843 171.07666016 269.91943359 C174.21589223 274.94746487 177.35807151 279.97365341 180.5 285 C181.75001464 286.99999085 183.00001462 288.99999086 184.25 291 C185.178125 292.485 185.178125 292.485 186.125 294 C206.75 327 206.75 327 208.62573242 330.0012207 C209.87323247 331.99718828 211.12079088 333.99311939 212.3684082 335.98901367 C215.53214182 341.05040916 218.69479561 346.11247394 221.85546875 351.17578125 C227.55021995 360.29664293 233.25047521 369.41354171 239 378.5 C245.39985753 388.61423388 251.73875893 398.76629843 258.07666016 408.91943359 C261.21589223 413.94746487 264.35807151 418.97365341 267.5 424 C268.75001464 425.99999085 270.00001462 427.99999086 271.25 430 C272.178125 431.485 272.178125 431.485 273.125 433 C293.75 466 293.75 466 295.62573242 469.0012207 C296.87323247 470.99718828 298.12079088 472.99311939 299.3684082 474.98901367 C302.53214182 480.05040916 305.69479561 485.11247394 308.85546875 490.17578125 C314.55021995 499.29664293 320.25047521 508.41354171 326 517.5 C332.39985753 527.61423388 338.73875893 537.76629843 345.07666016 547.91943359 C348.21589223 552.94746487 351.35807151 557.97365341 354.5 563 C355.75001464 564.99999085 357.00001462 566.99999086 358.25 569 C358.86875 569.99 359.4875 570.98 360.125 572 C395.74999999 628.99999998 395.74999999 628.99999998 397.62573242 632.0012207 C398.87323247 633.99718828 400.12079088 635.99311939 401.3684082 637.98901367 C404.53214182 643.05040916 407.69479561 648.11247394 410.85546875 653.17578125 C416.55021995 662.29664293 422.25047521 671.41354171 428 680.5 C434.39985753 690.61423388 440.73875893 700.76629843 447.07666016 710.91943359 C450.21589223 715.94746487 453.35807151 720.97365341 456.5 726 C457.75001464 727.99999085 459.00001462 729.99999086 460.25 732 C460.86875 732.99 461.4875 733.98 462.125 735 C482.75 768 482.75 768 484.62573242 771.0012207 C485.87323247 772.99718828 487.12079088 774.99311939 488.3684082 776.98901367 C491.53214182 782.05040916 494.69479561 787.11247394 497.85546875 792.17578125 C503.55021995 801.29664293 509.25047521 810.41354171 515 819.5 C521.39985753 829.61423388 527.73875893 839.76629843 534.07666016 849.91943359 C537.21589223 854.94746487 540.35807151 859.97365341 543.5 865 C544.75001464 866.99999085 546.00001462 868.99999086 547.25 871 C547.86875 871.99 548.4875 872.98 549.125 874 C569.74999999 906.99999998 569.74999999 906.99999998 571.62573242 910.0012207 C572.87323247 911.99718828 574.12079088 913.99311939 575.3684082 915.98901367 C578.53214182 921.05040916 581.69479561 926.11247394 584.85546875 931.17578125 C590.55021995 940.29664293 596.25047521 949.41354171 602 958.5 C608.39985753 968.61423388 614.73875893 978.76629843 621.07666016 988.91943359 C624.21589223 993.94746487 627.35807151 998.97365341 630.5 1004 C631.75001464 1005.99999085 633.00001462 1007.99999086 634.25 1010 C634.86875 1010.99 635.4875 1011.98 636.125 1013 C656.75 1046 656.75 1046 658.62573242 1049.0012207 C659.87323247 1050.99718828 661.12079088 1052.99311939 662.3684082 1054.98901367 C665.53214182 1060.05040916 668.69479561 1065.11247394 671.85546875 1070.17578125 C677.55021995 1079.29664293 683.25047521 1088.41354171 689 1097.5 C695.39985753 1107.61423388 701.73875893 1117.76629843 708.07666016 1127.91943359 C711.21589223 1132.94746487 714.35807151 1137.97365341 717.5 1143 C718.75001464 1144.99999085 720.00001462 1146.99999086 721.25 1149 C721.86875 1149.99 722.4875 1150.98 723.125 1152 C758.74999999 1208.99999999 758.74999999 1208.99999999 760.62573242 1212.0012207 C761.87323247 1213.99718828 763.12079088 1215.99311939 764.3684082 1217.98901367 C767.53214182 1223.05040916 770.69479561 1228.11247394 773.85546875 1233.17578125 C779.55021995 1242.29664293 785.25047521 1251.41354171 791 1260.5 C797.39985753 1270.61423388 803.73875893 1280.76629843 810.07666016 1290.91943359 C813.21589223 1295.94746487 816.35807151 1300.97365341 819.5 1306 C820.75001464 1307.99999085 822.00001462 1309.99999086 823.25 1312 C823.86875 1312.99 824.4875 1313.98 825.125 1315 C845.75000002 1348.00000004 845.75000002 1348.00000004 847.62573242 1351.0012207 C848.87323247 1352.99718828 850.12079088 1354.99311939 851.3684082 1356.98901367 C854.53214182 1362.05040916 857.69479561 1367.11247394 860.85546875 1372.17578125 C866.55021995 1381.29664293 872.25047521 1390.41354171 878 1399.5 C884.39985753 1409.61423388 890.73875893 1419.76629843 897.07666016 1429.91943359 C900.21589223 1434.94746487 903.35807151 1439.97365341 906.5 1445 C907.75001464 1446.99999085 909.00001462 1448.99999086 910.25 1451 C910.86875 1451.99 911.4875 1452.98 912.125 1454 C932.75 1487 932.75 1487 934.62573242 1490.0012207 C935.87323247 1491.99718828 937.12079088 1493.99311939 938.3684082 1495.98901367 C941.53214182 1501.05040916 944.69479561 1506.11247394 947.85546875 1511.17578125 C953.55021995 1520.29664293 959.25047521 1529.41354171 965 1538.5 C971.39985753 1548.61423388 977.73875893 1558.76629843 984.07666016 1568.91943359 C987.21589223 1573.94746487 990.35807151 1578.97365341 993.5 1584 C994.75001464 1585.99999085 996.00001462 1587.99999086 997.25 1590 C997.86875 1590.99 998.4875 1591.98 999.125 1593 C1019.75 1626 1019.75 1626 1021.62573242 1629.0012207 C1022.87323247 1630.99718828 1024.12079088 1632.99311939 1025.3684082 1634.98901367 C1028.53214182 1640.05040916 1031.69479561 1645.11247394 1034.85546875 1650.17578125 C1040.55021995 1659.29664293 1046.25047521 1668.41354171 1052 1677.5 C1058.39985753 1687.61423388 1064.73875893 1697.76629843 1071.07666016 1707.91943359 C1074.83564759 1713.94011187 1078.59842254 1719.95842398 1082.36108398 1725.97680664 C1085.56377449 1731.10002168 1088.76423987 1736.22460563 1091.9609375 1741.3515625 C1093.26555074 1743.44275466 1094.57023706 1745.53390124 1095.875 1747.625 C1096.49834229 1748.6248291 1097.12168457 1749.6246582 1097.76391602 1750.65478516 C1101.94768867 1757.35307286 1106.20565022 1763.99639868 1110.55859375 1770.5859375 C1112 1773 1112 1773 1112 1775 C1059.7867784 1775.59545408 1007.57390058 1776.0534206 955.35794991 1776.32769857 C949.1897996 1776.36021591 943.02165597 1776.39386839 936.85351562 1776.42822266 C935.62557931 1776.43504273 934.39764299 1776.4418628 933.13249648 1776.44888954 C913.26416199 1776.56194559 893.39778866 1776.76689441 873.53061664 1777.0059727 C853.13619804 1777.24934397 832.7428045 1777.39357461 812.34699345 1777.44630086 C799.76602629 1777.48193409 787.19060176 1777.59432964 774.61134183 1777.80582814 C765.97830566 1777.94355998 757.34812243 1777.98474336 748.71406806 1777.95103581 C743.73423531 1777.93441537 738.76405816 1777.95934215 733.78595734 1778.09934235 C704.78584893 1778.87496718 704.78584893 1778.87496718 696.89490128 1772.48588896 C691.5208552 1766.64665778 688.37618204 1759.58459452 685.43065834 1752.28691173 C683.17590371 1747.10665363 680.08166161 1742.54888299 676.9375 1737.875 C675.78498955 1736.08073466 674.63606328 1734.28415739 673.4921875 1732.484375 C672.92081055 1731.58912109 672.34943359 1730.69386719 671.76074219 1729.77148438 C666.75374282 1721.89025077 661.83086696 1713.95569843 656.89111328 1706.03222656 C653.76456576 1701.01909459 650.63199839 1696.00972757 647.5 1691 C646.24997074 1689.00001829 644.99997074 1687.00001828 643.75 1685 C643.13125 1684.01 642.5125 1683.02 641.875 1682 C606.24999998 1624.99999997 606.24999998 1624.99999997 604.37426758 1621.9987793 C603.12676753 1620.00281172 601.87920912 1618.00688061 600.6315918 1616.01098633 C597.46785818 1610.94959084 594.30520439 1605.88752606 591.14453125 1600.82421875 C585.44978005 1591.70335707 579.74952479 1582.58645829 574 1573.5 C567.60014247 1563.38576612 561.26124107 1553.23370157 554.92333984 1543.08056641 C551.78410777 1538.05253513 548.64192849 1533.02634659 545.5 1528 C544.24998536 1526.00000915 542.99998538 1524.00000914 541.75 1522 C541.13125 1521.01 540.5125 1520.02 539.875 1519 C519.25000003 1486.00000005 519.25000003 1486.00000005 517.37426758 1482.9987793 C516.12676753 1481.00281172 514.87920912 1479.00688061 513.6315918 1477.01098633 C510.46785818 1471.94959084 507.30520439 1466.88752606 504.14453125 1461.82421875 C498.44978005 1452.70335707 492.74952479 1443.58645829 487 1434.5 C480.60014247 1424.38576612 474.26124107 1414.23370157 467.92333984 1404.08056641 C464.78410777 1399.05253513 461.64192849 1394.02634659 458.5 1389 C457.24998536 1387.00000915 455.99998538 1385.00000914 454.75 1383 C454.13125 1382.01 453.5125 1381.02 452.875 1380 C432.25000001 1347.00000001 432.25000001 1347.00000001 430.37426758 1343.9987793 C429.12676753 1342.00281172 427.87920912 1340.00688061 426.6315918 1338.01098633 C423.46785818 1332.94959084 420.30520439 1327.88752606 417.14453125 1322.82421875 C411.44978005 1313.70335707 405.74952479 1304.58645829 400 1295.5 C393.60014247 1285.38576612 387.26124107 1275.23370157 380.92333984 1265.08056641 C377.78410777 1260.05253513 374.64192849 1255.02634659 371.5 1250 C370.24998536 1248.00000915 368.99998538 1246.00000914 367.75 1244 C367.13125 1243.01 366.5125 1242.02 365.875 1241 C345.25000001 1208.00000001 345.25000001 1208.00000001 343.37426758 1204.9987793 C342.12676753 1203.00281172 340.87920912 1201.00688061 339.6315918 1199.01098633 C336.46785818 1193.94959084 333.30520439 1188.88752606 330.14453125 1183.82421875 C324.44978005 1174.70335707 318.74952479 1165.58645829 313 1156.5 C306.60014247 1146.38576612 300.26124107 1136.23370157 293.92333984 1126.08056641 C290.78410777 1121.05253513 287.64192849 1116.02634659 284.5 1111 C283.24998536 1109.00000915 281.99998538 1107.00000914 280.75 1105 C279.821875 1103.515 279.821875 1103.515 278.875 1102 C258.25 1068.99999999 258.25 1068.99999999 256.37426758 1065.9987793 C255.12676753 1064.00281172 253.87920912 1062.00688061 252.6315918 1060.01098633 C249.46785818 1054.94959084 246.30520439 1049.88752606 243.14453125 1044.82421875 C237.44978005 1035.70335707 231.74952479 1026.58645829 226 1017.5 C219.60014247 1007.38576612 213.26124107 997.23370157 206.92333984 987.08056641 C203.78410777 982.05253513 200.64192849 977.02634659 197.5 972 C196.24998536 970.00000915 194.99998538 968.00000914 193.75 966 C192.821875 964.515 192.821875 964.515 191.875 963 C171.24999999 929.99999999 171.24999999 929.99999999 169.37426758 926.9987793 C168.12676753 925.00281172 166.87920912 923.00688061 165.6315918 921.01098633 C162.46785818 915.94959084 159.30520439 910.88752606 156.14453125 905.82421875 C150.44978005 896.70335707 144.74952479 887.58645829 139 878.5 C132.60014247 868.38576612 126.26124107 858.23370157 119.92333984 848.08056641 C116.78410777 843.05253513 113.64192849 838.02634659 110.5 833 C109.24998536 831.00000915 107.99998538 829.00000914 106.75 827 C105.821875 825.515 105.821875 825.515 104.875 824 C69.25 767 69.25 767 67.37426758 763.9987793 C66.12676753 762.00281172 64.87920912 760.00688061 63.6315918 758.01098633 C60.46785818 752.94959084 57.30520439 747.88752606 54.14453125 742.82421875 C47.9722897 732.93859611 41.78686278 723.06203132 35.5534668 713.21484375 C32.19392761 707.90307192 28.8580671 702.57692135 25.53198242 697.24414062 C23.00308465 693.19065195 20.46847218 689.14075346 17.93310547 685.09130859 C16.61999948 682.99146671 15.30920708 680.89017664 14.00048828 678.78759766 C12.06956817 675.68745324 10.1295566 672.59317663 8.1875 669.5 C7.59469238 668.54375732 7.00188477 667.58751465 6.39111328 666.60229492 C5.84310059 665.7332251 5.29508789 664.86415527 4.73046875 663.96875 C4.24989014 663.19982422 3.76931152 662.43089844 3.27416992 661.63867188 C2.85369385 661.09791016 2.43321777 660.55714844 2 660 C1.34 660 0.68 660 0 660 C-1.61836274 662.18100571 -1.61836274 662.18100571 -3.2734375 665.01953125 C-3.92707275 666.09477051 -4.58070801 667.17000977 -5.25415039 668.27783203 C-5.59979034 668.85390198 -5.9454303 669.42997192 -6.30154419 670.02349854 C-7.74657548 672.43176078 -9.20709385 674.83048738 -10.66682434 677.2298584 C-11.40363838 678.44135453 -12.13962742 679.6533528 -12.87480164 680.86584473 C-15.88136897 685.82184858 -18.95227979 690.73359404 -22.0625 695.625 C-26.50583678 702.6293269 -30.91874284 709.65195542 -35.3125 716.6875 C-35.94075684 717.69337158 -36.56901367 718.69924316 -37.21630859 719.7355957 C-39.14456427 722.8235068 -41.07236507 725.91170137 -43 729 C-50.45671842 740.94654283 -57.91862847 752.88909636 -65.44873047 764.78955078 C-71.3624154 774.14256726 -77.21704024 783.5324913 -83.07666016 792.91943359 C-86.21589223 797.94746487 -89.35807151 802.97365341 -92.5 808 C-93.75001464 809.99999085 -95.00001462 811.99999086 -96.25 814 C-103.75 826 -111.25 838 -118.75 850 C-119.3689917 850.99040283 -119.9879834 851.98080566 -120.62573242 853.0012207 C-121.87323247 854.99718828 -123.12079088 856.99311939 -124.3684082 858.98901367 C-127.53214182 864.05040916 -130.69479561 869.11247394 -133.85546875 874.17578125 C-140.02857747 884.06279278 -146.21625756 893.93984891 -152.44873047 903.78955078 C-158.3624154 913.14256726 -164.21704024 922.5324913 -170.07666016 931.91943359 C-173.21589223 936.94746487 -176.35807151 941.97365341 -179.5 947 C-180.75001464 948.99999085 -182.00001462 950.99999086 -183.25 953 C-190.75 965 -198.25 977 -205.75 989 C-206.3689917 989.99040283 -206.9879834 990.98080566 -207.62573242 992.0012207 C-208.87323247 993.99718828 -210.12079088 995.99311939 -211.3684082 997.98901367 C-214.53214182 1003.05040916 -217.69479561 1008.11247394 -220.85546875 1013.17578125 C-227.02857747 1023.06279278 -233.21625756 1032.93984891 -239.44873047 1042.78955078 C-245.3624154 1052.14256726 -251.21704024 1061.5324913 -257.07666016 1070.91943359 C-260.21589225 1075.94746489 -263.35810814 1080.97363049 -266.5 1086 C-267.11343262 1086.98162109 -267.72686523 1087.96324219 -268.35888672 1088.97460938 C-271.56987567 1094.11286468 -274.78206335 1099.25036528 -277.99609375 1104.38671875 C-278.65609375 1105.44181641 -279.31609375 1106.49691406 -279.99609375 1107.58398438 C-281.23919994 1109.57120343 -282.48265666 1111.55820327 -283.7265625 1113.54492188 C-284.30019531 1114.46208984 -284.87382813 1115.37925781 -285.46484375 1116.32421875 C-286.01809735 1117.17868192 -286.57135096 1118.03314509 -287.14136982 1118.91350108 C-289.06738548 1121.97748402 -289.06738548 1121.97748402 -290.51819897 1125.34306544 C-294.90034358 1134.26449727 -294.90034358 1134.26449727 -300.40358925 1136.19226611 C-304.79030509 1136.64614593 -309.01227422 1136.67325542 -313.41333008 1136.56330872 C-315.09905606 1136.56898112 -316.78477084 1136.5803701 -318.47042465 1136.59696788 C-323.09426483 1136.62600324 -327.7141817 1136.57410563 -332.33752179 1136.50885308 C-337.32583644 1136.45267007 -342.31393291 1136.47171361 -347.30247498 1136.48158264 C-355.9423764 1136.48839685 -364.58100086 1136.44763902 -373.22058105 1136.37449074 C-385.71170542 1136.26880167 -398.20221281 1136.23497861 -410.69373584 1136.21864685 C-430.96039915 1136.19020009 -451.22638194 1136.10370176 -471.49267578 1135.98071289 C-491.17851356 1135.86137088 -510.86416644 1135.76935896 -530.55029297 1135.71411133 C-531.76389838 1135.71069592 -532.97750379 1135.70728052 -534.22788513 1135.70376161 C-540.31623589 1135.68679603 -546.40458796 1135.67036785 -552.4929409 1135.65420687 C-602.99576425 1135.51945651 -653.49784892 1135.29050115 -704 1135 C-702.78189649 1131.89046272 -701.55549761 1129.0763078 -699.7421875 1126.26953125 C-699.28996826 1125.5628833 -698.83774902 1124.85623535 -698.37182617 1124.12817383 C-697.63089722 1122.98191528 -697.63089722 1122.98191528 -696.875 1121.8125 C-691.89911162 1114.02711202 -687.01699322 1106.18951539 -682.1875 1098.3125 C-676.31434365 1088.74293684 -670.39417993 1079.20449917 -664.43432617 1069.6887207 C-660.43679373 1063.30436581 -656.45939099 1056.9080735 -652.5 1050.5 C-647.92062069 1043.08850686 -643.31181979 1035.69602931 -638.6875 1028.3125 C-633.41934738 1019.89869427 -628.19469798 1011.4593426 -623 1003 C-614.79035281 989.63298486 -606.47599026 976.33293864 -598.14550781 963.04101562 C-591.05271418 951.72090206 -583.99132651 940.38311839 -577 929 C-568.79023877 915.63305397 -560.47599103 902.33293988 -552.14550781 889.04101562 C-544.37189253 876.63430928 -536.64874001 864.19873055 -528.98730469 851.72241211 C-523.84302122 843.35199954 -518.64852203 835.01403829 -513.43359375 826.6875 C-509.43626354 820.30357812 -505.4591416 813.90766988 -501.5 807.5 C-496.92062069 800.08850686 -492.31181979 792.69602931 -487.6875 785.3125 C-482.41934738 776.89869427 -477.19469798 768.4593426 -472 760 C-463.79035281 746.63298486 -455.47599026 733.33293864 -447.14550781 720.04101562 C-440.05271418 708.72090206 -432.99132651 697.38311839 -426 686 C-417.79023877 672.63305397 -409.47599103 659.33293988 -401.14550781 646.04101562 C-393.37189253 633.63430928 -385.64874001 621.19873055 -377.98730469 608.72241211 C-372.84302122 600.35199954 -367.64852203 592.01403829 -362.43359375 583.6875 C-358.43626354 577.30357812 -354.4591416 570.90766988 -350.5 564.5 C-345.92062091 557.08850721 -341.31187648 549.6959936 -336.6875 542.3125 C-331.35427778 533.79606907 -326.06914146 525.25139544 -320.8125 516.6875 C-315.78909485 508.5041238 -310.71842463 500.35521664 -305.57080078 492.24951172 C-300.68466749 484.53809666 -295.91499115 476.75601192 -291.1394043 468.97583008 C-285.9457448 460.52061911 -280.70138706 452.09835399 -275.43432617 443.6887207 C-271.43679373 437.30436581 -267.45939099 430.9080735 -263.5 424.5 C-258.92062069 417.08850686 -254.31181979 409.69602931 -249.6875 402.3125 C-244.41934738 393.89869427 -239.19469798 385.4593426 -234 377 C-225.79035281 363.63298486 -217.47599026 350.33293864 -209.14550781 337.04101562 C-201.37189253 324.63430928 -193.64874001 312.19873055 -185.98730469 299.72241211 C-180.84302122 291.35199954 -175.64852203 283.01403829 -170.43359375 274.6875 C-166.43626354 268.30357812 -162.4591416 261.90766988 -158.5 255.5 C-153.92062091 248.08850721 -149.31187648 240.6959936 -144.6875 233.3125 C-139.35427778 224.79606907 -134.06914146 216.25139544 -128.8125 207.6875 C-123.78909485 199.5041238 -118.71842463 191.35521664 -113.57080078 183.24951172 C-108.68466749 175.53809666 -103.91499115 167.75601192 -99.1394043 159.97583008 C-93.9457448 151.52061911 -88.70138706 143.09835399 -83.43432617 134.6887207 C-79.43679373 128.30436581 -75.45939099 121.9080735 -71.5 115.5 C-66.92062091 108.08850721 -62.31187648 100.6959936 -57.6875 93.3125 C-52.35427778 84.79606907 -47.06914146 76.25139544 -41.8125 67.6875 C-37.25423388 60.26185835 -32.67097995 52.85529503 -28 45.5 C-23.14386479 37.85198661 -18.37186067 30.15360838 -13.625 22.4375 C-12.95855469 21.3546875 -12.29210938 20.271875 -11.60546875 19.15625 C-7.69713358 12.79439256 -3.82607527 6.41167218 0 0 Z " fill="#FEFEFE" transform="translate(2318,590)"/>
<path d="M0 0 C597.63 0 1195.26 0 1811 0 C1809.50391364 3.74021591 1808.15892382 6.55953747 1806.05078125 9.89453125 C1805.4578125 10.83748047 1804.86484375 11.78042969 1804.25390625 12.75195312 C1803.61324219 13.76193359 1802.97257812 14.77191406 1802.3125 15.8125 C1800.9439033 17.98560963 1799.57541674 20.15878862 1798.20703125 22.33203125 C1797.50658691 23.44143066 1796.80614258 24.55083008 1796.08447266 25.69384766 C1792.87390856 30.78607756 1789.68743617 35.89327462 1786.5 41 C1785.25013188 43.00008242 1784.00013146 45.00008217 1782.75 47 C1782.13125 47.99 1781.5125 48.98 1780.875 50 C1774 61 1767.125 72 1760.25 83 C1759.6310083 83.99040283 1759.0120166 84.98080566 1758.37426758 86.0012207 C1757.12676753 87.99718828 1755.87920912 89.99311939 1754.6315918 91.98901367 C1751.46785818 97.05040916 1748.30520439 102.11247394 1745.14453125 107.17578125 C1738.97142253 117.06279278 1732.78374244 126.93984891 1726.55126953 136.78955078 C1720.6375846 146.14256726 1714.78295976 155.5324913 1708.92333984 164.91943359 C1705.78410777 169.94746487 1702.64192849 174.97365341 1699.5 180 C1698.24998536 181.99999085 1696.99998538 183.99999086 1695.75 186 C1683.25 206 1670.75 226 1658.25 246 C1657.6310083 246.99040283 1657.0120166 247.98080566 1656.37426758 249.0012207 C1655.12676753 250.99718828 1653.87920912 252.99311939 1652.6315918 254.98901367 C1649.46785818 260.05040916 1646.30520439 265.11247394 1643.14453125 270.17578125 C1636.97142253 280.06279278 1630.78374244 289.93984891 1624.55126953 299.78955078 C1620.57636684 306.07621144 1616.62819433 312.37934802 1612.6875 318.6875 C1611.7430603 320.19932861 1611.7430603 320.19932861 1610.77954102 321.74169922 C1607.58534861 326.85646834 1604.39344391 331.97265782 1601.203125 337.08984375 C1600.57188721 338.10151611 1599.94064941 339.11318848 1599.2902832 340.15551758 C1598.12651161 342.02071114 1596.9634772 343.88636508 1595.80151367 345.75268555 C1594.66233535 347.57805206 1593.5011437 349.38982992 1592.32046821 351.18863384 C1590.43977977 354.15131013 1588.88670321 357.21025478 1587.33290342 360.35547235 C1579.68685842 375.01867176 1579.68685842 375.01867176 1573.6105922 378.28407458 C1566.98142287 380.29579034 1560.15901362 379.93747255 1553.30548668 379.76291847 C1550.99889124 379.78528412 1548.69237283 379.81728499 1546.38602829 379.85799879 C1540.04464751 379.94199237 1533.71067399 379.88913036 1527.36945604 379.81388347 C1521.18507455 379.75133248 1515.00125201 379.81454992 1508.81695599 379.86359161 C1496.01826183 379.96137101 1483.22151887 379.95506567 1470.42269325 379.89168549 C1457.45676846 379.82785449 1444.49209914 379.81194071 1431.52607155 379.8542366 C1430.70650519 379.85687744 1429.88693884 379.85951828 1429.04253714 379.86223914 C1425.70445731 379.87315462 1422.36637887 379.88441227 1419.02830167 379.89610337 C1387.95128641 380.0048829 1356.87514326 380.00562502 1325.79804611 379.93736649 C1295.84997938 379.87164203 1265.90231806 379.84269198 1235.95418167 379.86606979 C1234.07344171 379.86748027 1232.19270174 379.86888453 1230.31196177 379.87028259 C1222.75409075 379.87594572 1215.19621991 379.88181457 1207.63834927 379.88796996 C1186.51110217 379.90503133 1165.38385497 379.91452471 1144.25660133 379.91814232 C1143.2945195 379.9183086 1142.33243768 379.91847488 1141.34120185 379.9186462 C1110.68515656 379.9233973 1080.02923564 379.89477091 1049.3732357 379.84313393 C1047.88178364 379.84062839 1047.88178364 379.84062839 1046.36020123 379.83807223 C1030.21331186 379.81084559 1014.06642552 379.7819047 997.91953939 379.75283167 C933.8734814 379.63763052 869.82832341 379.62841447 805.78222656 379.71728516 C789.64111084 379.73959156 773.49999496 379.7617178 757.35887718 379.7824955 C756.3650209 379.78378051 755.37116461 379.78506551 754.34719147 379.78638946 C723.72138127 379.82570583 693.09564552 379.84012074 662.46981239 379.82716942 C661.02778939 379.82656053 661.02778939 379.82656053 659.55663461 379.82593934 C638.45409367 379.81673361 617.35156107 379.80100414 596.24902929 379.77941598 C588.69854051 379.77170949 581.14805143 379.76429965 573.59756229 379.75695637 C571.71918674 379.75511488 569.84081122 379.75324576 567.96243572 379.75134891 C539.8812579 379.7230278 511.80038956 379.73814025 483.71923807 379.78262089 C450.87592668 379.83460752 418.03362375 379.81916531 385.19046257 379.69931789 C381.86401811 379.68746024 378.53757272 379.67591291 375.21112633 379.664608 C374.394755 379.66180321 373.57838367 379.65899842 372.73727381 379.65610864 C359.80485325 379.61345883 346.87346132 379.6377346 333.94111146 379.68972177 C321.22777484 379.73940039 308.51622295 379.71768979 295.80314813 379.61976794 C289.00013317 379.56929855 282.20130872 379.55270128 275.39833479 379.62259682 C269.21011928 379.68550858 263.02941708 379.6566643 256.84179358 379.5541087 C254.61619797 379.53335244 252.3899755 379.54619016 250.16485062 379.5964488 C236.60012709 379.88086937 236.60012709 379.88086937 231 377 C225.89332365 372.04877324 222.90281552 365.72560416 220.04849427 359.29882752 C218.75434687 356.46140462 217.1792979 353.87104013 215.4765625 351.26171875 C215.00089844 350.49730469 214.52523437 349.73289062 214.03515625 348.9453125 C213.56980469 348.20023438 213.10445312 347.45515625 212.625 346.6875 C208.04182669 339.31650837 203.50443473 331.91936207 199 324.5 C194.04957258 316.3492412 189.05930736 308.22473471 184.03295898 300.12060547 C174.56192941 284.84897993 165.14276791 269.54555191 155.8125 254.1875 C150.92245511 246.1386001 145.99240761 238.11591344 141.02783203 230.11279297 C134.67664734 219.87343934 128.36861785 209.60760094 122.05712891 199.34375 C120.01224572 196.01990475 117.96542134 192.69726304 115.91796875 189.375 C109.52256298 178.99536891 103.14237025 168.60725016 96.8125 158.1875 C91.92384331 150.14084245 86.9947231 142.12068781 82.03222656 134.11938477 C72.56134372 118.84822764 63.14252086 103.54514526 53.8125 88.1875 C48.92245511 80.1386001 43.99240761 72.11591344 39.02783203 64.11279297 C34.0605861 56.10461966 29.11899003 48.08081425 24.18359375 40.05297852 C21.00249162 34.87869788 17.81975498 29.70549659 14.62733459 24.53819275 C13.14832163 22.14408578 11.67051862 19.74923301 10.19277954 17.3543396 C9.1468539 15.66039383 8.09920201 13.96751433 7.05151367 12.2746582 C6.41834229 11.24816162 5.7851709 10.22166504 5.1328125 9.1640625 C4.29580811 7.80982178 4.29580811 7.80982178 3.44189453 6.42822266 C2.20091105 4.33834428 1.08698037 2.17396074 0 0 Z " fill="#FE0200" transform="translate(2655,571)"/>
<path d="M0 0 C1.26290106 0.92500301 2.52270908 1.85422962 3.78125 2.78515625 C4.48314453 3.30215088 5.18503906 3.81914551 5.90820312 4.35180664 C8.57465678 6.45279038 10.88306003 8.8011942 13.2421875 11.234375 C14.97461589 12.97450307 16.76541033 14.58467375 18.625 16.1875 C22.28144112 19.34082616 25.83480349 22.59276653 29.375 25.875 C34.87152943 30.96791878 40.41702433 36.00182047 46 41 C51.40337858 45.84470939 56.78364423 50.71209075 62.125 55.625 C65.36217216 58.60218281 68.61137729 61.55952856 71.9375 64.4375 C76.12109857 68.06212089 80.1643461 71.83385067 84.22241211 75.59741211 C87.11364128 78.27401038 90.01889404 80.92311179 93 83.5 C97.16566161 87.10082614 101.18600048 90.85390974 105.22265625 94.59765625 C108.11381617 97.27415929 111.01898132 99.92318724 114 102.5 C118.16566161 106.10082614 122.18600048 109.85390974 126.22265625 113.59765625 C129.11381617 116.27415929 132.01898132 118.92318724 135 121.5 C139.16566161 125.10082614 143.18600048 128.85390974 147.22265625 132.59765625 C150.11381617 135.27415929 153.01898132 137.92318724 156 140.5 C160.16566161 144.10082614 164.18600048 147.85390974 168.22265625 151.59765625 C171.11381617 154.27415929 174.01898132 156.92318724 177 159.5 C181.16566161 163.10082614 185.18600048 166.85390974 189.22265625 170.59765625 C192.11381617 173.27415929 195.01898132 175.92318724 198 178.5 C202.16566161 182.10082614 206.18600048 185.85390974 210.22265625 189.59765625 C213.11381617 192.27415929 216.01898132 194.92318724 219 197.5 C223.11204293 201.05683038 227.0876962 204.75583684 231.07543945 208.45043945 C236.00664258 213.01610385 240.99306529 217.51752326 246 222 C251.40337858 226.84470939 256.78364423 231.71209075 262.125 236.625 C265.36217216 239.60218281 268.61137729 242.55952856 271.9375 245.4375 C276.12109857 249.06212089 280.1643461 252.83385067 284.22241211 256.59741211 C287.11364128 259.27401038 290.01889404 261.92311179 293 264.5 C296.5735249 267.58897915 300.03698219 270.78855216 303.5 274 C311.53623939 281.90102879 311.53623939 281.90102879 320.57251609 288.47840421 C324.23806933 292.28606843 323.6883149 295.74092999 323.62099248 300.84553266 C323.62738291 301.86312004 323.63377334 302.88070742 323.64035742 303.92913078 C323.65579548 307.37391333 323.63528555 310.81757154 323.61523914 314.26231766 C323.6189343 316.7534977 323.62482398 319.2446753 323.63272163 321.73584557 C323.64491152 327.18724203 323.64140605 332.63828991 323.62441591 338.08966747 C323.59908085 346.25043756 323.60254157 354.41102049 323.61174879 362.57181564 C323.62659817 376.47797388 323.61769021 390.38402738 323.59602737 404.29017258 C323.57416138 418.38870572 323.5631616 432.48718471 323.56553841 446.58573532 C323.56568187 447.47514383 323.56582533 448.36455235 323.56597314 449.28091263 C323.56675498 453.81575178 323.56771472 458.35059086 323.56873732 462.88542995 C323.57578088 495.73649956 323.55859963 528.58752094 323.52865028 561.43857574 C323.4990546 593.97934457 323.47977818 626.52009274 323.47438622 659.06087494 C323.47421416 660.07084974 323.4740421 661.08082454 323.47386482 662.12140464 C323.47229886 671.34574493 323.4708604 680.57008525 323.46957495 689.79442559 C323.46637765 712.72679529 323.46158085 735.6591645 323.45569897 758.59153366 C323.45543238 759.63591163 323.45516579 760.68028959 323.45489113 761.75631538 C323.4417783 812.57973887 323.41023837 863.40314872 323.37719727 914.2265625 C323.36573913 931.86706532 323.3543624 949.5075682 323.34332275 967.14807129 C323.34229564 968.78913302 323.34229564 968.78913302 323.34124777 970.46334752 C323.30953704 1021.30687674 323.29090254 1072.15040831 323.27564878 1122.99394483 C323.27465846 1126.29407598 323.27366249 1129.59420713 323.27266538 1132.89433828 C323.26606657 1154.76417684 323.25969331 1176.63401545 323.25347109 1198.50385411 C323.24108804 1242.02072778 323.22737961 1285.53760101 323.21276085 1329.05447398 C323.21206465 1331.1269382 323.21136938 1333.19940243 323.21067504 1335.27186665 C323.18927956 1399.11705912 323.1619014 1462.96224689 323.12825012 1526.80743408 C323.12689595 1529.38311355 323.12554182 1531.95879302 323.12418817 1534.53447248 C323.08643181 1606.02298372 323.04240141 1677.51149142 323 1749 C208.16 1749 93.32 1749 -25 1749 C-23.93033918 1674.12374238 -23.93033918 1674.12374238 -23.45495605 1641.10629272 C-23.23427768 1625.76868425 -23.01514021 1610.43105378 -22.7962265 1595.09342003 C-22.63241718 1583.61939653 -22.46802182 1572.14538199 -22.30224609 1560.67138672 C-22.10596249 1547.08042893 -21.91134363 1533.48944809 -21.71875 1519.8984375 C-21.70303389 1518.79005964 -21.68731777 1517.68168179 -21.67112541 1516.53971672 C-21.15582356 1480.13687305 -20.7153551 1443.73358043 -20.35090017 1407.32890904 C-20.15535737 1387.80019012 -19.92640233 1368.27534785 -19.5 1348.75 C-19.16599527 1333.1670017 -18.92215599 1317.58555738 -18.75 1302 C-18.73952133 1301.05413277 -18.72904266 1300.10826553 -18.71824646 1299.13373566 C-18.61321998 1289.60392862 -18.51244819 1280.07408737 -18.41907501 1270.54415894 C-18.22888255 1251.26599218 -17.95952778 1231.99317704 -17.53125 1212.71875 C-16.86904439 1182.81712966 -16.48930595 1152.91169347 -16.09575462 1123.00559062 C-16.02033648 1117.27775319 -15.94390182 1111.54992997 -15.86694336 1105.82211304 C-15.24316382 1059.47611233 -15.24316382 1059.47611233 -14.71875 1013.12890625 C-14.70911224 1012.18521872 -14.69947449 1011.24153118 -14.68954468 1010.26924706 C-14.61635215 1003.06713405 -14.54477885 995.86500499 -14.47393799 988.6628685 C-14.12700633 953.48534305 -13.53917824 918.31320299 -12.93231201 883.13931274 C-12.321633 847.6975879 -11.8098216 812.25814068 -11.5 776.8125 C-11.15030641 736.9755823 -10.65795788 697.14163484 -10.09948874 657.30717784 C-10.02297133 651.84555537 -9.94761518 646.3839178 -9.87280273 640.92227173 C-9.77089364 633.48901535 -9.66622424 626.05580121 -9.55979919 618.62260818 C-9.52087219 615.89956313 -9.48299452 613.17651014 -9.44569397 610.45344162 C-9.24405539 595.80409105 -8.96575378 581.16054148 -8.57956028 566.51508343 C-7.98343389 543.88573133 -7.63301124 521.25562964 -7.32575035 498.62071514 C-7.24888679 492.98754135 -7.16971698 487.35439978 -7.09094238 481.72125244 C-6.95830537 472.21099943 -6.82747253 462.70072292 -6.69775391 453.19042969 C-6.56788896 443.67087023 -6.43611975 434.15133986 -6.30224609 424.63183594 C-5.58018419 373.27310465 -4.9239566 321.91490435 -4.43869591 270.55335331 C-4.12446592 237.33088379 -3.69467054 204.11499312 -3.06391525 170.89683151 C-2.88172678 161.21426733 -2.71007949 151.531505 -2.53735161 141.84876823 C-2.49456117 139.45040595 -2.45164157 137.05204597 -2.4085865 134.65368843 C-2.12991741 119.10157119 -1.88130514 103.54945599 -1.68359375 87.99609375 C-1.67238117 87.11662205 -1.66116859 86.23715034 -1.64961624 85.33102798 C-1.54824861 77.32691574 -1.4518233 69.32276317 -1.36501122 61.31847954 C-1.14143344 40.87021557 -0.64468192 20.43888607 0 0 Z " fill="#FEFEFE" transform="translate(703,611)"/>
<path d="M0 0 C4.45776627 0.0585604 8.91482569 0.01804631 13.37273746 -0.00981733 C21.18296432 -0.04503069 28.99098747 -0.01720644 36.80095791 0.05203221 C48.41357333 0.15469662 60.02480133 0.1597356 71.63778784 0.1448184 C91.17258998 0.1224882 110.7064142 0.17926047 130.24093174 0.28111431 C149.58249427 0.3817036 168.9236495 0.44713505 188.26547169 0.46561215 C189.46806456 0.46678072 190.67065743 0.4679493 191.9096925 0.46915328 C198.01705258 0.47490494 204.124413 0.48002847 210.23177382 0.48491017 C253.49055428 0.52061746 296.74880269 0.63515267 340.00728344 0.79605458 C382.03231976 0.95218822 424.0572105 1.07261023 466.08247876 1.14468739 C467.3778725 1.14692333 468.67326624 1.14915928 470.00791434 1.15146298 C483.01678858 1.17387781 496.02566395 1.19556665 509.03454029 1.21672359 C535.53513144 1.25983924 562.03571309 1.30780052 588.5362904 1.35869191 C589.7547446 1.36102583 590.97319879 1.36335976 592.22857584 1.36576442 C673.59521848 1.52217636 754.96156615 1.79154491 836.32784008 2.07852528 C834.86572706 5.84583669 833.18485957 9.1461881 831.05440258 12.58633778 C830.0739497 14.17502674 830.0739497 14.17502674 829.07368969 15.79581044 C828.36688848 16.93180789 827.65993505 18.06771065 826.95284008 19.20352528 C826.22286104 20.3822487 825.49312717 21.56112398 824.7636311 22.74014637 C819.68538332 30.93761513 814.55157055 39.09963595 809.38643383 47.24258778 C805.84045929 52.83804909 802.33487201 58.45860503 798.82784008 64.07852528 C794.34687023 71.25735466 789.85361158 78.42785229 785.32784008 85.57852528 C778.92785672 95.69267872 772.58908049 105.84482476 766.25117993 115.99795887 C763.11194785 121.02599015 759.96976857 126.05217869 756.82784008 131.07852528 C755.57782545 133.07851613 754.32782546 135.07851614 753.07784008 137.07852528 C745.57784008 149.07852528 738.07784008 161.07852528 730.57784008 173.07852528 C729.95884838 174.06892811 729.33985668 175.05933094 728.70210766 176.07974598 C727.45460761 178.07571356 726.20704921 180.07164467 724.95943188 182.06753895 C721.79569826 187.12893444 718.63304447 192.19099922 715.47237133 197.25430653 C709.29926261 207.14131806 703.11158252 217.01837419 696.87910961 226.86807606 C690.96542469 236.22109254 685.11079984 245.61101658 679.25117993 254.99795887 C675.48993103 261.02225927 671.72468826 267.0440641 667.9601643 273.06631825 C664.79621644 278.12813931 661.6332957 283.19059676 658.47237133 288.25430653 C657.83041821 289.28233387 657.18846508 290.31036122 656.52705883 291.3695409 C655.33525834 293.27814895 654.14380579 295.18697435 652.95284008 297.0961034 C651.81351556 298.9203322 650.6418718 300.72474266 649.44006156 302.50842515 C647.74638903 305.16815124 646.63336704 307.81485071 645.53269052 310.76594499 C643.11829251 316.50209875 640.41437029 321.33326955 635.32784008 325.07852528 C625.31344651 328.53435889 613.89385103 327.60421658 603.42859635 327.40158295 C598.95519511 327.33608123 594.48266721 327.38142268 590.00908422 327.41255525 C582.17283162 327.4518965 574.33932361 327.4208422 566.50339054 327.3434293 C554.85230808 327.22864592 543.20295214 327.22305838 531.55140733 327.23972709 C511.95155766 327.26467962 492.35292585 327.20125175 472.7534306 327.08739636 C453.3484875 326.97496016 433.94405168 326.90184126 414.53878521 326.8811929 C413.33210204 326.87988684 412.12541887 326.87858079 410.88216955 326.87723516 C404.75399839 326.8708068 398.62582679 326.86508052 392.4976547 326.85962452 C349.09516423 326.81971985 305.69333628 326.69171982 262.29121899 326.51187489 C220.12751785 326.33736326 177.96399801 326.2027786 135.80000805 326.12222645 C134.50026367 326.11972745 133.20051928 326.11722846 131.8613887 326.11465373 C118.80878415 326.08960179 105.75617819 326.06536133 92.70357101 326.04171541 C66.11406394 325.99352776 39.5245687 325.93992396 12.93507885 325.88304493 C11.71254548 325.88043642 10.49001211 325.87782791 9.23043227 325.87514036 C-72.40404059 325.70033674 -154.03814616 325.39927889 -235.67215992 325.07852528 C-234.29585402 321.54369943 -232.78040771 318.43287472 -230.75809742 315.21915028 C-230.17004322 314.28095448 -229.58198902 313.34275868 -228.97611499 312.3761327 C-228.33955982 311.37042225 -227.70300464 310.3647118 -227.04715992 309.32852528 C-226.38417896 308.27447499 -225.721198 307.22042469 -225.03812671 306.13443348 C-218.89293298 296.38273277 -212.67422282 286.67801129 -206.44950367 276.97696278 C-203.12681419 271.79533841 -199.82894513 266.59863201 -196.54715992 261.39102528 C-190.54533177 251.86773188 -184.50203438 242.37111083 -178.45438648 232.87686512 C-175.5256118 228.27828767 -172.59895644 223.6783619 -169.67215992 219.07852528 C-166.14979898 213.5426827 -162.62695612 208.00714991 -159.10184742 202.47305653 C-153.61056678 193.85078254 -148.12607712 185.22449197 -142.67215992 176.57852528 C-135.44348665 165.11907956 -128.16059472 153.69423073 -120.88114429 142.26700184 C-114.79611353 132.71383606 -108.71515917 123.15834988 -102.67215992 113.57852528 C-96.62634209 103.99423247 -90.54236058 94.43441921 -84.45438648 84.87686512 C-81.5256118 80.27828767 -78.59895644 75.6783619 -75.67215992 71.07852528 C-72.14979898 65.5426827 -68.62695612 60.00714991 -65.10184742 54.47305653 C-63.91689007 52.61241862 -62.73199392 50.75174173 -61.54715992 48.89102528 C-60.67643848 47.52361195 -60.67643848 47.52361195 -59.78812671 46.12857411 C-55.57052086 39.50073841 -51.36994344 32.86229829 -47.19315601 26.20865223 C-46.2995453 24.78920259 -45.37209538 23.39062139 -44.41594178 22.01252571 C-42.97072204 19.58087102 -42.09683158 17.56606885 -41.15771908 14.93916873 C-33.76362761 -2.95970378 -16.53542671 -0.28717415 0 0 Z " fill="#FE0200" transform="translate(1444.6721599167213,2039.9214747203514)"/>
<path d="M0 0 C113.85 0 227.7 0 345 0 C345 355.08 345 710.16 345 1076 C342.11301429 1073.11301429 340.44524226 1071.40241444 338.51171875 1068.078125 C337.83544434 1066.93029541 337.83544434 1066.93029541 337.14550781 1065.75927734 C336.42379395 1064.51718506 336.42379395 1064.51718506 335.6875 1063.25 C331.14587562 1055.5569004 326.50341359 1047.93908979 321.75 1040.375 C316.45698649 1031.9426397 311.20814387 1023.48505032 306 1015 C300.86935452 1006.64377454 295.70675496 998.30901604 290.5 990 C283.89229873 979.45399723 277.36255359 968.86133114 270.84765625 958.2578125 C265.77788364 950.00727844 260.67797502 941.77548694 255.57666016 933.54443359 C252.88291445 929.19723357 250.19160083 924.84852823 247.5 920.5 C246.41667787 918.74999307 245.33334454 916.99999306 244.25 915.25 C159.75 778.75 159.75 778.75 158.12548828 776.12573242 C157.04059456 774.3732494 155.95563347 772.62080809 154.87060547 770.8684082 C152.18559597 766.53173543 149.50170709 762.19437771 146.8203125 757.85546875 C141.13477983 748.65841169 135.42606961 739.47656805 129.6875 730.3125 C123.01936995 719.66110324 116.42606157 708.96478966 109.84765625 698.2578125 C104.77788364 690.00727844 99.67797502 681.77548694 94.57666016 673.54443359 C91.88291445 669.19723357 89.19160083 664.84852823 86.5 660.5 C85.41667787 658.74999307 84.33334454 656.99999306 83.25 655.25 C24.75 560.75 24.75 560.75 23.12231445 558.12060547 C22.04800029 556.38521221 20.97361969 554.64986008 19.89916992 552.91455078 C17.05227357 548.31641724 14.20681565 543.71740099 11.36328125 539.1171875 C10.76902344 538.15619141 10.17476562 537.19519531 9.5625 536.20507812 C8.4201497 534.3576835 7.27820415 532.51003853 6.13671875 530.66210938 C5.62367188 529.83259766 5.110625 529.00308594 4.58203125 528.1484375 C4.13061768 527.41802246 3.6792041 526.68760742 3.21411133 525.93505859 C2.17074581 524.27213578 1.08895488 522.63343232 0 521 C-0.19183876 518.13222086 -0.26429483 515.36221607 -0.24609566 512.49420643 C-0.24840335 511.61110221 -0.25071103 510.72799798 -0.25308865 509.81813303 C-0.25842069 506.83203505 -0.24937806 503.84614884 -0.24050903 500.86006165 C-0.24138044 498.70845097 -0.24313023 496.55684051 -0.24568737 494.40523118 C-0.25017756 488.47176235 -0.24213433 482.53836518 -0.23213124 476.60490549 C-0.22352303 470.21430544 -0.22641503 463.82370968 -0.22793579 457.43310547 C-0.22898631 446.3539717 -0.22276184 435.27486179 -0.21146011 424.19573402 C-0.19963454 412.57333579 -0.19192993 400.95094692 -0.18975449 389.32854271 C-0.18961701 388.60646226 -0.18947953 387.8843818 -0.18933788 387.14042012 C-0.18866124 383.47348361 -0.18805846 379.80654708 -0.18748413 376.13961055 C-0.18328097 350.15255625 -0.16979973 324.1655142 -0.15087891 298.1784668 C-0.13251638 272.92911849 -0.11837986 247.67977355 -0.10986328 222.43041992 C-0.109322 220.84323297 -0.10878059 219.25604602 -0.10823905 217.66885906 C-0.10386165 204.7727346 -0.09977644 191.87661004 -0.09576209 178.98048546 C-0.0769801 119.32031204 -0.03684116 59.66017056 0 0 Z " fill="#FEFEFE" transform="translate(3373,1191)"/>
</svg>
